<svg width="728" height="497" viewBox="0 0 728 497" fill="none" xmlns="http://www.w3.org/2000/svg">
<path d="M314.375 373.43C316.965 373.43 319.228 373.943 321.165 374.97C323.102 375.997 324.595 377.443 325.645 379.31C326.718 381.153 327.255 383.288 327.255 385.715C327.255 388.118 326.718 390.253 325.645 392.12C324.595 393.987 323.09 395.433 321.13 396.46C319.193 397.487 316.942 398 314.375 398H305.17V373.43H314.375ZM313.99 392.82C316.253 392.82 318.015 392.202 319.275 390.965C320.535 389.728 321.165 387.978 321.165 385.715C321.165 383.452 320.535 381.69 319.275 380.43C318.015 379.17 316.253 378.54 313.99 378.54H311.155V392.82H313.99ZM349.885 378.47V398H343.9V395.34C343.293 396.203 342.465 396.903 341.415 397.44C340.388 397.953 339.245 398.21 337.985 398.21C336.491 398.21 335.173 397.883 334.03 397.23C332.886 396.553 332 395.585 331.37 394.325C330.74 393.065 330.425 391.583 330.425 389.88V378.47H336.375V389.075C336.375 390.382 336.713 391.397 337.39 392.12C338.066 392.843 338.976 393.205 340.12 393.205C341.286 393.205 342.208 392.843 342.885 392.12C343.561 391.397 343.9 390.382 343.9 389.075V378.47H349.885ZM360.169 372.1V398H354.184V372.1H360.169ZM363.316 388.235C363.316 386.205 363.724 384.432 364.541 382.915C365.381 381.398 366.536 380.232 368.006 379.415C369.499 378.598 371.203 378.19 373.116 378.19C375.566 378.19 377.608 378.832 379.241 380.115C380.898 381.398 381.983 383.207 382.496 385.54H376.126C375.589 384.047 374.551 383.3 373.011 383.3C371.914 383.3 371.039 383.732 370.386 384.595C369.733 385.435 369.406 386.648 369.406 388.235C369.406 389.822 369.733 391.047 370.386 391.91C371.039 392.75 371.914 393.17 373.011 393.17C374.551 393.17 375.589 392.423 376.126 390.93H382.496C381.983 393.217 380.898 395.013 379.241 396.32C377.584 397.627 375.543 398.28 373.116 398.28C371.203 398.28 369.499 397.872 368.006 397.055C366.536 396.238 365.381 395.072 364.541 393.555C363.724 392.038 363.316 390.265 363.316 388.235ZM404.107 387.92C404.107 388.48 404.072 389.063 404.002 389.67H390.457C390.551 390.883 390.936 391.817 391.612 392.47C392.312 393.1 393.164 393.415 394.167 393.415C395.661 393.415 396.699 392.785 397.282 391.525H403.652C403.326 392.808 402.731 393.963 401.867 394.99C401.027 396.017 399.966 396.822 398.682 397.405C397.399 397.988 395.964 398.28 394.377 398.28C392.464 398.28 390.761 397.872 389.267 397.055C387.774 396.238 386.607 395.072 385.767 393.555C384.927 392.038 384.507 390.265 384.507 388.235C384.507 386.205 384.916 384.432 385.732 382.915C386.572 381.398 387.739 380.232 389.232 379.415C390.726 378.598 392.441 378.19 394.377 378.19C396.267 378.19 397.947 378.587 399.417 379.38C400.887 380.173 402.031 381.305 402.847 382.775C403.687 384.245 404.107 385.96 404.107 387.92ZM397.982 386.345C397.982 385.318 397.632 384.502 396.932 383.895C396.232 383.288 395.357 382.985 394.307 382.985C393.304 382.985 392.452 383.277 391.752 383.86C391.076 384.443 390.656 385.272 390.492 386.345H397.982ZM410.065 398.28C409.015 398.28 408.151 397.977 407.475 397.37C406.821 396.74 406.495 395.97 406.495 395.06C406.495 394.127 406.821 393.345 407.475 392.715C408.151 392.085 409.015 391.77 410.065 391.77C411.091 391.77 411.931 392.085 412.585 392.715C413.261 393.345 413.6 394.127 413.6 395.06C413.6 395.97 413.261 396.74 412.585 397.37C411.931 397.977 411.091 398.28 410.065 398.28Z" fill="#1E311D"/>
<path d="M240.999 346.681C272.559 346.863 302.905 333.446 325.361 309.383C347.817 285.32 360.543 252.581 360.741 218.369C360.938 184.157 348.59 151.273 326.413 126.953C304.236 102.632 274.047 88.867 242.486 88.6851L241.743 217.683L240.999 346.681Z" fill="#1E311D"/>
<mask id="path-3-inside-1_1978_24" fill="white">
<path d="M481.454 349.676C448.576 349.865 416.966 336.456 393.579 312.398C370.191 288.341 356.941 255.605 356.744 221.392C356.546 187.18 369.418 154.294 392.527 129.968C415.636 105.642 447.089 91.8694 479.967 91.6798L480.001 97.6391C448.642 97.8199 418.642 110.956 396.601 134.158C374.559 157.36 362.282 188.728 362.471 221.359C362.659 253.991 375.296 285.215 397.604 308.161C419.911 331.107 450.061 343.897 481.42 343.716L481.454 349.676Z"/>
</mask>
<path d="M481.454 349.676C448.576 349.865 416.966 336.456 393.579 312.398C370.191 288.341 356.941 255.605 356.744 221.392C356.546 187.18 369.418 154.294 392.527 129.968C415.636 105.642 447.089 91.8694 479.967 91.6798L480.001 97.6391C448.642 97.8199 418.642 110.956 396.601 134.158C374.559 157.36 362.282 188.728 362.471 221.359C362.659 253.991 375.296 285.215 397.604 308.161C419.911 331.107 450.061 343.897 481.42 343.716L481.454 349.676Z" stroke="#1E311D" stroke-width="6" mask="url(#path-3-inside-1_1978_24)"/>
</svg>
